<?xml version="1.0"?>
<!-- Generated by SVGo (float) -->
<svg width="101.35" height="84.24"
     xmlns="http://www.w3.org/2000/svg"
     xmlns:xlink="http://www.w3.org/1999/xlink">
<polygon points="24.85,8.45 24.85,12.33 26.28,12.33 26.28,13.75 18.38,13.86 13.63,13.86 13.63,15.38 13.65,15.53 8.45,15.51 9.11,17.36 9.74,17.13 10.12,18.20 9.49,18.43 10.88,22.44 19.32,22.44 19.32,43.01 38.24,43.01 38.24,42.35 43.60,42.35 43.60,44.72 46.55,44.72 46.55,47.31 72.73,47.64 72.73,44.92 85.69,44.92 85.69,36.46 83.65,36.46 83.65,34.20 89.29,34.20 89.29,30.80 92.01,30.80 92.01,29.45 92.90,29.45 92.90,24.50 92.01,24.50 92.01,23.36 92.90,23.36 92.90,18.40 92.04,18.40 92.01,17.26 92.90,17.26 92.90,12.31 92.01,12.31 92.01,11.16 92.90,11.16 92.90,8.45 24.85,8.45" style="fill: white" />
<polygon points="35.17,23.94 35.78,23.94 35.78,21.93 35.17,21.93 35.17,23.94" style="fill: #d5d5d5" />
<polygon points="32.30,23.81 33.57,23.81 33.57,20.10 32.30,20.10 32.30,23.81" style="fill: #d5d5d5" />
<polygon points="37.25,24.83 37.25,24.57 37.96,24.45 38.09,23.86 38.49,23.48 38.49,20.10 39.76,20.10 39.76,23.81 38.65,23.84 38.42,24.09 38.37,24.47 38.06,24.55 37.86,24.85 37.25,24.83" style="fill: #d5d5d5" />
<polygon points="42.74,24.07 42.74,23.56 43.95,23.56 43.95,24.07 42.74,24.07" style="fill: #d5d5d5" />
<polygon points="31.66,18.66 31.97,18.66 31.97,12.46 31.66,12.46 31.66,18.66" style="fill: #d5d5d5" />
<polygon points="34.81,18.66 35.12,18.66 35.12,12.46 34.81,12.46 34.81,18.66" style="fill: #d5d5d5" />
<polygon points="37.25,18.66 37.55,18.66 37.55,12.36 37.25,12.36 37.25,18.66" style="fill: #d5d5d5" />
<polygon points="40.40,18.66 40.70,18.66 40.70,12.46 40.40,12.46 40.40,18.66" style="fill: #d5d5d5" />
<polygon points="42.63,19.72 43.24,19.72 43.24,12.41 42.63,12.41 42.63,19.72" style="fill: #d5d5d5" />
<polygon points="83.68,24.45 90.26,24.45 90.26,23.28 83.68,23.28 83.68,24.45" style="fill: #d5d5d5" />
<polygon points="82.00,11.95 90.59,11.95 90.59,10.68 82.00,10.68 82.00,11.95" style="fill: #d5d5d5" />
<polygon points="46.52,35.75 46.52,35.47 46.98,35.47 46.98,35.75 46.52,35.75" style="fill: #d5d5d5" />
<polygon points="31.08,40.65 32.14,40.65 32.14,35.12 31.08,35.12 31.08,40.65" style="fill: #d5d5d5" />
<polygon points="33.92,40.65 34.99,40.65 34.99,35.12 33.92,35.12 33.92,40.65" style="fill: #d5d5d5" />
<polygon points="39.03,40.75 40.09,40.75 40.09,35.22 39.03,35.22 39.03,40.75" style="fill: #d5d5d5" />
<polygon points="42.00,40.75 43.07,40.75 43.07,35.22 42.00,35.22 42.00,40.75" style="fill: #d5d5d5" />
<polygon points="44.44,41.36 45.50,41.36 45.50,35.22 44.44,35.22 44.44,41.36" style="fill: #d5d5d5" />
<polygon points="47.71,44.74 49.85,44.74 49.85,35.32 47.71,35.32 47.71,44.74" style="fill: #d5d5d5" />
<polygon points="52.31,44.79 54.55,44.79 54.55,35.17 52.31,35.17 52.31,44.79" style="fill: #d5d5d5" />
<polygon points="60.69,44.84 62.47,44.84 62.47,35.17 60.69,35.17 60.69,44.84" style="fill: #d5d5d5" />
<polygon points="43.65,44.64 46.09,44.64 46.09,44.03 43.65,44.03 43.65,44.64" style="fill: #d5d5d5" />
<polygon points="35.78,43.01 38.21,43.01 38.21,42.43 35.78,42.43 35.78,43.01" style="fill: #d5d5d5" />
<polygon points="81.98,32.12 86.91,32.12 86.91,31.05 81.98,31.05 81.98,32.12" style="fill: #d5d5d5" />
<polygon points="82.00,29.63 90.59,29.63 90.59,28.56 82.00,28.56 82.00,29.63" style="fill: #d5d5d5" />
<polygon points="82.00,27.11 90.59,27.11 90.59,26.05 82.00,26.05 82.00,27.11" style="fill: #d5d5d5" />
<polygon points="81.98,24.47 81.98,23.25 82.64,23.25 82.64,24.47 81.98,24.47" style="fill: #d5d5d5" />
<polygon points="84.59,22.06 90.59,22.06 90.59,20.99 84.59,20.99 84.59,22.06" style="fill: #d5d5d5" />
<polygon points="84.59,19.39 90.59,19.39 90.59,18.33 84.59,18.33 84.59,19.39" style="fill: #d5d5d5" />
<polygon points="82.00,14.44 90.59,14.44 90.59,13.37 82.00,13.37 82.00,14.44" style="fill: #d5d5d5" />
<polygon points="92.04,23.30 92.62,23.30 92.62,18.43 92.04,18.43 92.04,23.30" style="fill: #d5d5d5" />
<polygon points="92.01,29.40 92.62,29.40 92.62,24.52 92.01,24.52 92.01,29.40" style="fill: #d5d5d5" />
<polygon points="21.45,21.09 28.82,21.09 28.82,20.03 21.45,20.03 21.45,21.09" style="fill: #d5d5d5" />
<polygon points="21.45,18.68 28.82,18.68 28.82,17.61 21.45,17.61 21.45,18.68" style="fill: #d5d5d5" />
<polygon points="21.45,16.24 28.82,16.24 28.82,15.18 21.45,15.18 21.45,16.24" style="fill: #d5d5d5" />
<polygon points="54.32,23.99 54.01,23.56 54.09,23.51 55.08,22.77 56.27,21.88 56.60,22.31 54.32,23.99" style="fill: #d5d5d5" />
<polygon points="54.27,21.81 54.11,21.58 53.99,21.35 54.09,21.30 55.05,20.59 56.05,19.85 56.27,19.67 56.58,20.10 54.29,21.78 54.27,21.81" style="fill: #d5d5d5" />
<polygon points="54.32,19.52 54.01,19.11 54.09,19.06 56.30,17.44 56.60,17.87 54.32,19.52" style="fill: #d5d5d5" />
<polygon points="56.20,12.03 57.47,12.03 57.47,10.68 56.20,10.68 56.20,12.03" style="fill: #d5d5d5" />
<polygon points="54.32,12.03 55.59,12.03 55.59,10.68 54.32,10.68 54.32,12.03" style="fill: #d5d5d5" />
<polygon points="56.78,44.67 58.48,44.67 58.48,41.31 56.78,41.31 56.78,44.67" style="fill: #d5d5d5" />
<polygon points="27.50,26.10 28.82,26.10 28.82,25.03 27.50,25.03 27.50,26.10" style="fill: #d5d5d5" />
<polygon points="21.50,26.10 27.01,26.10 27.01,25.03 21.50,25.03 21.50,26.10" style="fill: #d5d5d5" />
<polygon points="21.45,28.51 28.84,28.51 28.84,27.44 21.45,27.44 21.45,28.51" style="fill: #d5d5d5" />
<polygon points="19.39,26.63 20.00,26.66 20.00,32.02 20.36,32.47 20.43,42.13 20.82,42.33 32.60,42.33 32.63,42.91 20.46,42.91 20.23,42.30 19.47,42.23 19.39,26.63" style="fill: #d5d5d5" />
<polygon points="21.45,30.82 28.82,30.82 28.82,29.86 21.45,29.86 21.45,30.82" style="fill: #d5d5d5" />
<polygon points="21.76,33.26 28.82,33.26 28.82,32.19 21.76,32.19 21.76,33.26" style="fill: #d5d5d5" />
<polygon points="72.53,35.85 72.53,35.22 73.80,35.22 73.80,35.47 74.41,35.47 74.41,35.75 73.80,35.75 73.80,41.95 73.80,42.43 72.53,42.43 72.53,41.95 72.53,35.85" style="fill: #d5d5d5" />
<polygon points="69.56,45.05 70.83,45.05 70.83,35.24 69.56,35.24 69.56,45.05" style="fill: #d5d5d5" />
<polygon points="66.76,45.05 68.03,45.05 68.03,35.24 66.76,35.24 66.76,45.05" style="fill: #d5d5d5" />
<polygon points="75.81,42.46 77.08,42.46 77.08,35.24 75.81,35.24 75.81,42.46" style="fill: #d5d5d5" />
<polygon points="64.55,47.61 66.89,47.61 66.89,46.60 64.55,46.60 64.55,47.61" style="fill: #d5d5d5" />
<polygon points="46.62,46.55 46.62,46.27 47.54,46.27 47.54,46.42 56.17,46.42 56.17,46.57 64.22,46.57 64.22,46.85 63.54,46.85 63.54,47.61 55.44,47.61 54.65,47.61 53.86,47.61 51.52,47.61 50.74,47.61 49.19,47.61 48.40,47.61 47.61,47.61 47.61,46.55 46.62,46.55" style="fill: #d5d5d5" />
<polygon points="58.69,11.95 67.14,11.95 67.14,10.68 58.69,10.68 58.69,11.95" style="fill: #d5d5d5" />
<polygon points="78.47,19.42 79.54,19.42 79.54,10.83 78.47,10.83 78.47,19.42" style="fill: #d5d5d5" />
<polygon points="76.03,19.42 77.10,19.42 77.10,10.83 76.03,10.83 76.03,19.42" style="fill: #d5d5d5" />
<polygon points="73.62,19.42 74.69,19.42 74.69,12.08 73.62,12.08 73.62,19.42" style="fill: #d5d5d5" />
<polygon points="58.69,19.44 67.27,19.44 67.27,18.38 58.69,18.38 58.69,19.44" style="fill: #d5d5d5" />
<polygon points="62.42,16.83 67.20,16.83 67.20,15.76 62.42,15.76 62.42,16.83" style="fill: #d5d5d5" />
<polygon points="71.18,19.42 72.25,19.42 72.25,10.83 71.18,10.83 71.18,19.42" style="fill: #d5d5d5" />
<polygon points="68.54,19.39 69.81,19.39 69.81,10.81 68.54,10.81 68.54,19.39" style="fill: #d5d5d5" />
<polygon points="49.01,24.60 52.34,24.60 52.34,23.84 49.01,23.84 49.01,24.60" style="fill: #d5d5d5" />
<polygon points="47.66,22.62 47.66,22.14 50.10,22.14 51.93,22.14 51.93,22.62 47.66,22.62 47.66,24.19 47.18,24.19 47.18,24.27 46.98,24.27 46.98,24.55 46.52,24.55 46.52,24.12 46.11,24.12 46.11,23.66 47.18,23.66 47.18,22.67 47.66,22.67 47.66,22.62" style="fill: #d5d5d5" />
<polygon points="62.42,14.39 67.20,14.39 67.20,13.32 62.42,13.32 62.42,14.39" style="fill: #d5d5d5" />
<polygon points="37.22,23.53 37.22,23.28 37.22,23.25 37.25,23.25 37.83,23.25 37.86,23.25 37.86,23.28 37.86,23.53 37.22,23.53" style="fill: #d5d5d5" />
<polygon points="56.22,39.74 58.97,39.74 58.97,35.17 56.22,35.17 56.22,39.74" style="fill: #d5d5d5" />
<polygon points="69.13,47.56 72.78,47.56 72.78,47.08 69.13,47.08 69.13,47.56" style="fill: #d5d5d5" />
<polygon points="84.67,36.51 85.53,36.51 85.53,43.83 84.72,43.83 84.72,44.74 72.83,44.74 72.83,43.85 84.67,43.85 84.67,36.51" style="fill: #d5d5d5" />
<polygon points="82.99,34.12 82.99,33.52 83.88,33.39 88.35,33.36 88.63,33.03 88.66,30.82 89.24,30.82 89.24,33.26 88.58,33.39 88.43,34.00 83.91,34.00 82.99,34.12" style="fill: #d5d5d5" />
<polygon points="21.45,23.51 28.84,23.51 28.84,22.49 21.45,22.49 21.45,23.51" style="fill: #d5d5d5" />
<polygon points="53.91,9.13 53.94,8.52 91.99,8.52 92.09,9.08 92.60,9.28 92.62,11.09 92.01,11.11 92.01,9.49 91.55,9.13 53.91,9.13" style="fill: #d5d5d5" />
<polygon points="92.06,17.21 92.65,17.21 92.65,12.33 92.06,12.33 92.06,17.21" style="fill: #d5d5d5" />
<polygon points="36.39,40.65 37.66,40.65 37.66,35.12 36.39,35.12 36.39,40.65" style="fill: #d5d5d5" />
<polygon points="64.00,40.02 65.27,40.02 65.27,35.12 64.00,35.12 64.00,40.02" style="fill: #d5d5d5" />
<polygon points="64.00,45.12 65.27,45.12 65.27,40.83 64.00,40.83 64.00,45.12" style="fill: #d5d5d5" />
<polygon points="78.73,42.46 80.00,42.46 80.00,35.24 78.73,35.24 78.73,42.46" style="fill: #d5d5d5" />
<polygon points="73.70,11.32 73.70,10.71 74.61,10.71 74.61,11.32 73.70,11.32" style="fill: #d5d5d5" />
<polygon points="55.56,35.67 55.56,35.39 56.02,35.39 56.02,35.67 55.56,35.67" style="fill: #d5d5d5" />
<polygon points="21.76,38.52 28.82,38.52 28.82,37.45 21.76,37.45 21.76,38.52" style="fill: #d5d5d5" />
<polygon points="21.76,35.73 28.82,35.73 28.82,34.66 21.76,34.66 21.76,35.73" style="fill: #d5d5d5" />
<polygon points="81.62,42.46 82.89,42.46 82.89,37.99 81.62,37.99 81.62,42.46" style="fill: #d5d5d5" />
<polygon points="52.21,11.75 52.82,11.75 52.82,9.31 52.21,9.31 52.21,11.75" style="fill: #d5d5d5" />
<polygon points="58.71,14.54 58.71,13.17 61.00,13.17 61.00,14.54 58.71,14.54" style="fill: #d5d5d5" />
<polygon points="58.71,16.98 58.71,15.61 61.00,15.61 61.00,16.98 58.71,16.98" style="fill: #d5d5d5" />
<polygon points="82.13,16.95 90.59,16.95 90.59,15.89 82.13,15.89 82.13,16.95" style="fill: #d5d5d5" />
<polygon points="82.00,22.03 83.07,22.03 83.07,18.63 82.00,18.63 82.00,22.03" style="fill: #d5d5d5" />
<polygon points="21.76,40.96 28.18,40.96 28.18,39.89 21.76,39.89 21.76,40.96" style="fill: #d5d5d5" />
<polygon points="60.69,28.84 64.38,28.84 64.38,27.95 60.69,27.95 60.69,28.84" style="fill: #d5d5d5" />
<polygon points="62.85,26.58 63.74,26.58 63.74,24.14 62.85,24.14 62.85,26.58" style="fill: #d5d5d5" />
<polygon points="52.08,31.99 52.08,30.80 52.97,30.80 53.05,31.84 53.35,32.04 54.22,32.04 54.22,32.93 53.02,32.93 52.90,32.12 52.08,31.99" style="fill: #d5d5d5" />
<polygon points="52.08,28.64 52.08,27.44 52.90,27.32 53.02,26.50 54.22,26.50 54.22,27.39 53.17,27.47 53.00,27.77 52.97,28.64 52.08,28.64" style="fill: #d5d5d5" />
<polygon points="37.68,32.19 38.57,32.19 38.57,27.27 37.68,27.27 37.68,32.19" style="fill: #d5d5d5" />
<polygon points="69.74,26.91 74.69,26.91 74.69,26.02 69.74,26.02 69.74,26.91" style="fill: #d5d5d5" />
<polygon points="69.00,33.01 70.37,33.01 70.37,31.41 69.00,31.41 69.00,33.01" style="fill: #d5d5d5" />
<polygon points="32.45,27.80 32.04,27.37 31.74,26.99 32.17,26.56 32.91,26.48 33.34,26.91 32.93,27.32 32.50,27.75 32.45,27.80" style="fill: #d5d5d5" />
<text x="21.33" y="74.83" style="text-anchor: middle; dominant-baseline: middle; font-size: 0.676px" >beauty</text>
<text x="41.95" y="60.03" style="text-anchor: middle; dominant-baseline: middle; font-size: 0.676px" >checkout</text>
<text x="25.75" y="59.54" style="text-anchor: middle; dominant-baseline: middle; font-size: 0.676px" >entrance</text>
<text x="59.36" y="95.17" style="text-anchor: middle; dominant-baseline: middle; font-size: 0.676px" >grocery</text>
<text x="65.69" y="63.24" style="text-anchor: middle; dominant-baseline: middle; font-size: 0.676px" >home</text>
<text x="71.90" y="78.27" style="text-anchor: middle; dominant-baseline: middle; font-size: 0.676px" >kids</text>
<text x="71.46" y="72.32" style="text-anchor: middle; dominant-baseline: middle; font-size: 0.676px" >mens</text>
<text x="19.42" y="72.38" style="text-anchor: middle; dominant-baseline: middle; font-size: 0.676px" >restrooms</text>
<text x="88.41" y="58.46" style="text-anchor: middle; dominant-baseline: middle; font-size: 0.676px" >seasonal</text>
<text x="51.42" y="78.41" style="text-anchor: middle; dominant-baseline: middle; font-size: 0.676px" >womens</text>
<text x="82.03" y="14.72" style="text-anchor: middle; dominant-baseline: middle; font-size: 0.676px" >B17</text>
<text x="82.03" y="13.35" style="text-anchor: middle; dominant-baseline: middle; font-size: 0.676px" >B18</text>
<text x="28.23" y="20.03" style="text-anchor: middle; dominant-baseline: middle; font-size: 0.676px" >D18</text>
<text x="62.45" y="15.74" style="text-anchor: middle; dominant-baseline: middle; font-size: 0.676px" >C15</text>
<text x="83.30" y="19.09" style="text-anchor: middle; dominant-baseline: middle; font-size: 0.676px" >B10</text>
<text x="82.08" y="29.88" style="text-anchor: middle; dominant-baseline: middle; font-size: 0.676px" >B3</text>
<text x="82.05" y="27.37" style="text-anchor: middle; dominant-baseline: middle; font-size: 0.676px" >B5</text>
<text x="62.40" y="13.27" style="text-anchor: middle; dominant-baseline: middle; font-size: 0.676px" >C18</text>
<text x="56.63" y="38.34" style="text-anchor: middle; dominant-baseline: middle; font-size: 0.676px" >A19</text>
<text x="82.21" y="23.13" style="text-anchor: middle; dominant-baseline: middle; font-size: 0.676px" >B8</text>
<text x="42.61" y="13.09" style="text-anchor: middle; dominant-baseline: middle; font-size: 0.676px" >CL20</text>
<text x="56.50" y="18.17" style="text-anchor: middle; dominant-baseline: middle; font-size: 0.676px" >E9</text>
<text x="71.08" y="35.75" style="text-anchor: middle; dominant-baseline: middle; font-size: 0.676px" >A30</text>
<text x="77.36" y="35.80" style="text-anchor: middle; dominant-baseline: middle; font-size: 0.676px" >A37</text>
<text x="66.48" y="46.49" style="text-anchor: middle; dominant-baseline: middle; font-size: 0.676px" >A46</text>
<text x="70.85" y="19.44" style="text-anchor: middle; dominant-baseline: middle; font-size: 0.676px" >C8</text>
<text x="28.28" y="21.37" style="text-anchor: middle; dominant-baseline: middle; font-size: 0.676px" >D17</text>
<text x="28.31" y="16.50" style="text-anchor: middle; dominant-baseline: middle; font-size: 0.676px" >D21</text>
<text x="20.31" y="32.25" style="text-anchor: middle; dominant-baseline: middle; font-size: 0.676px" >D24</text>
<text x="28.38" y="37.38" style="text-anchor: middle; dominant-baseline: middle; font-size: 0.676px" >D4</text>
<text x="58.46" y="14.14" style="text-anchor: middle; dominant-baseline: middle; font-size: 0.676px" >C16</text>
<text x="38.16" y="20.28" style="text-anchor: middle; dominant-baseline: middle; font-size: 0.676px" >X3</text>
<text x="37.20" y="16.14" style="text-anchor: middle; dominant-baseline: middle; font-size: 0.676px" >CL11</text>
<text x="41.97" y="35.52" style="text-anchor: middle; dominant-baseline: middle; font-size: 0.676px" >A9</text>
<text x="60.59" y="35.65" style="text-anchor: middle; dominant-baseline: middle; font-size: 0.676px" >A23</text>
<text x="54.72" y="35.57" style="text-anchor: middle; dominant-baseline: middle; font-size: 0.676px" >A16</text>
<text x="28.38" y="32.12" style="text-anchor: middle; dominant-baseline: middle; font-size: 0.676px" >D8</text>
<text x="74.08" y="35.67" style="text-anchor: middle; dominant-baseline: middle; font-size: 0.676px" >A32</text>
<text x="77.13" y="19.42" style="text-anchor: middle; dominant-baseline: middle; font-size: 0.676px" >C3</text>
<text x="58.64" y="19.70" style="text-anchor: middle; dominant-baseline: middle; font-size: 0.676px" >C11</text>
<text x="37.22" y="23.20" style="text-anchor: middle; dominant-baseline: middle; font-size: 0.676px" >X5</text>
<text x="58.46" y="16.50" style="text-anchor: middle; dominant-baseline: middle; font-size: 0.676px" >C13</text>
<text x="28.31" y="24.98" style="text-anchor: middle; dominant-baseline: middle; font-size: 0.676px" >D14</text>
<text x="28.49" y="31.05" style="text-anchor: middle; dominant-baseline: middle; font-size: 0.676px" >D9</text>
<text x="84.11" y="43.83" style="text-anchor: middle; dominant-baseline: middle; font-size: 0.676px" >A44</text>
<text x="82.11" y="15.81" style="text-anchor: middle; dominant-baseline: middle; font-size: 0.676px" >B16</text>
<text x="35.37" y="16.09" style="text-anchor: middle; dominant-baseline: middle; font-size: 0.676px" >CL7</text>
<text x="84.62" y="19.65" style="text-anchor: middle; dominant-baseline: middle; font-size: 0.676px" >B13</text>
<text x="20.66" y="42.15" style="text-anchor: middle; dominant-baseline: middle; font-size: 0.676px" >D23</text>
<text x="28.38" y="33.64" style="text-anchor: middle; dominant-baseline: middle; font-size: 0.676px" >D7</text>
<text x="79.57" y="19.39" style="text-anchor: middle; dominant-baseline: middle; font-size: 0.676px" >C1</text>
<text x="58.71" y="12.18" style="text-anchor: middle; dominant-baseline: middle; font-size: 0.676px" >C19</text>
<text x="56.63" y="35.62" style="text-anchor: middle; dominant-baseline: middle; font-size: 0.676px" >A17</text>
<text x="53.02" y="11.77" style="text-anchor: middle; dominant-baseline: middle; font-size: 0.676px" >C23</text>
<text x="81.19" y="9.49" style="text-anchor: middle; dominant-baseline: middle; font-size: 0.676px" >C26</text>
<text x="44.18" y="23.58" style="text-anchor: middle; dominant-baseline: middle; font-size: 0.676px" >Y1</text>
<text x="82.08" y="28.51" style="text-anchor: middle; dominant-baseline: middle; font-size: 0.676px" >B4</text>
<text x="55.92" y="19.72" style="text-anchor: middle; dominant-baseline: middle; font-size: 0.676px" >E8</text>
<text x="56.12" y="17.44" style="text-anchor: middle; dominant-baseline: middle; font-size: 0.676px" >E10</text>
<text x="36.36" y="35.42" style="text-anchor: middle; dominant-baseline: middle; font-size: 0.676px" >A5</text>
<text x="65.57" y="35.67" style="text-anchor: middle; dominant-baseline: middle; font-size: 0.676px" >A26</text>
<text x="35.47" y="13.17" style="text-anchor: middle; dominant-baseline: middle; font-size: 0.676px" >CL5</text>
<text x="37.20" y="17.74" style="text-anchor: middle; dominant-baseline: middle; font-size: 0.676px" >CL12</text>
<text x="45.63" y="44.06" style="text-anchor: middle; dominant-baseline: middle; font-size: 0.676px" >A47</text>
<text x="56.60" y="12.31" style="text-anchor: middle; dominant-baseline: middle; font-size: 0.676px" >C21</text>
<text x="28.36" y="23.76" style="text-anchor: middle; dominant-baseline: middle; font-size: 0.676px" >D15</text>
<text x="81.98" y="19.04" style="text-anchor: middle; dominant-baseline: middle; font-size: 0.676px" >B9</text>
<text x="33.90" y="35.42" style="text-anchor: middle; dominant-baseline: middle; font-size: 0.676px" >A3</text>
<text x="37.05" y="25.11" style="text-anchor: middle; dominant-baseline: middle; font-size: 0.676px" >X6</text>
<text x="68.01" y="19.34" style="text-anchor: middle; dominant-baseline: middle; font-size: 0.676px" >C10</text>
<text x="28.38" y="39.69" style="text-anchor: middle; dominant-baseline: middle; font-size: 0.676px" >D2</text>
<text x="40.32" y="35.50" style="text-anchor: middle; dominant-baseline: middle; font-size: 0.676px" >A8</text>
<text x="28.36" y="22.42" style="text-anchor: middle; dominant-baseline: middle; font-size: 0.676px" >D16</text>
<text x="63.89" y="35.65" style="text-anchor: middle; dominant-baseline: middle; font-size: 0.676px" >A25</text>
<text x="82.00" y="12.20" style="text-anchor: middle; dominant-baseline: middle; font-size: 0.676px" >B19</text>
<text x="28.38" y="36.08" style="text-anchor: middle; dominant-baseline: middle; font-size: 0.676px" >D5</text>
<text x="80.33" y="35.80" style="text-anchor: middle; dominant-baseline: middle; font-size: 0.676px" >A39</text>
<text x="53.81" y="9.46" style="text-anchor: middle; dominant-baseline: middle; font-size: 0.676px" >C24</text>
<text x="35.45" y="15.46" style="text-anchor: middle; dominant-baseline: middle; font-size: 0.676px" >CL6</text>
<text x="69.43" y="35.75" style="text-anchor: middle; dominant-baseline: middle; font-size: 0.676px" >A29</text>
<text x="72.30" y="47.08" style="text-anchor: middle; dominant-baseline: middle; font-size: 0.676px" >A45</text>
<text x="78.60" y="35.80" style="text-anchor: middle; dominant-baseline: middle; font-size: 0.676px" >A38</text>
<text x="40.98" y="17.69" style="text-anchor: middle; dominant-baseline: middle; font-size: 0.676px" >CL16</text>
<text x="55.89" y="22.03" style="text-anchor: middle; dominant-baseline: middle; font-size: 0.676px" >E6</text>
<text x="28.41" y="29.83" style="text-anchor: middle; dominant-baseline: middle; font-size: 0.676px" >D10</text>
<text x="62.45" y="17.11" style="text-anchor: middle; dominant-baseline: middle; font-size: 0.676px" >C14</text>
<text x="37.88" y="35.39" style="text-anchor: middle; dominant-baseline: middle; font-size: 0.676px" >A6</text>
<text x="40.93" y="16.17" style="text-anchor: middle; dominant-baseline: middle; font-size: 0.676px" >CL15</text>
<text x="91.96" y="25.11" style="text-anchor: middle; dominant-baseline: middle; font-size: 0.676px" >B23</text>
<text x="28.28" y="15.15" style="text-anchor: middle; dominant-baseline: middle; font-size: 0.676px" >D22</text>
<text x="59.19" y="35.67" style="text-anchor: middle; dominant-baseline: middle; font-size: 0.676px" >A18</text>
<text x="32.37" y="35.37" style="text-anchor: middle; dominant-baseline: middle; font-size: 0.676px" >A2</text>
<text x="54.67" y="12.31" style="text-anchor: middle; dominant-baseline: middle; font-size: 0.676px" >C22</text>
<text x="73.29" y="19.39" style="text-anchor: middle; dominant-baseline: middle; font-size: 0.676px" >C6</text>
<text x="37.20" y="14.59" style="text-anchor: middle; dominant-baseline: middle; font-size: 0.676px" >CL10</text>
<text x="35.22" y="35.39" style="text-anchor: middle; dominant-baseline: middle; font-size: 0.676px" >A4</text>
<text x="84.59" y="22.29" style="text-anchor: middle; dominant-baseline: middle; font-size: 0.676px" >B11</text>
<text x="49.42" y="23.81" style="text-anchor: middle; dominant-baseline: middle; font-size: 0.676px" >E2</text>
<text x="28.38" y="34.58" style="text-anchor: middle; dominant-baseline: middle; font-size: 0.676px" >D6</text>
<text x="84.57" y="20.94" style="text-anchor: middle; dominant-baseline: middle; font-size: 0.676px" >B12</text>
<text x="82.11" y="17.34" style="text-anchor: middle; dominant-baseline: middle; font-size: 0.676px" >B15</text>
<text x="31.03" y="35.34" style="text-anchor: middle; dominant-baseline: middle; font-size: 0.676px" >A1</text>
<text x="62.65" y="35.67" style="text-anchor: middle; dominant-baseline: middle; font-size: 0.676px" >A24</text>
<text x="28.44" y="28.74" style="text-anchor: middle; dominant-baseline: middle; font-size: 0.676px" >D11</text>
<text x="81.45" y="38.47" style="text-anchor: middle; dominant-baseline: middle; font-size: 0.676px" >A41</text>
<text x="37.17" y="12.84" style="text-anchor: middle; dominant-baseline: middle; font-size: 0.676px" >CL9</text>
<text x="82.05" y="26.05" style="text-anchor: middle; dominant-baseline: middle; font-size: 0.676px" >B6</text>
<text x="66.64" y="35.78" style="text-anchor: middle; dominant-baseline: middle; font-size: 0.676px" >A27</text>
<text x="88.58" y="31.38" style="text-anchor: middle; dominant-baseline: middle; font-size: 0.676px" >B24</text>
<text x="28.38" y="38.87" style="text-anchor: middle; dominant-baseline: middle; font-size: 0.676px" >D3</text>
<text x="32.04" y="20.33" style="text-anchor: middle; dominant-baseline: middle; font-size: 0.676px" >X1</text>
<text x="47.64" y="35.80" style="text-anchor: middle; dominant-baseline: middle; font-size: 0.676px" >A13</text>
<text x="28.26" y="17.56" style="text-anchor: middle; dominant-baseline: middle; font-size: 0.676px" >D20</text>
<text x="72.48" y="35.62" style="text-anchor: middle; dominant-baseline: middle; font-size: 0.676px" >A31</text>
<text x="84.62" y="36.97" style="text-anchor: middle; dominant-baseline: middle; font-size: 0.676px" >A43</text>
<text x="50.15" y="35.78" style="text-anchor: middle; dominant-baseline: middle; font-size: 0.676px" >A14</text>
<text x="37.73" y="42.43" style="text-anchor: middle; dominant-baseline: middle; font-size: 0.676px" >A48</text>
<text x="91.86" y="9.82" style="text-anchor: middle; dominant-baseline: middle; font-size: 0.676px" >B21</text>
<text x="47.94" y="23.81" style="text-anchor: middle; dominant-baseline: middle; font-size: 0.676px" >E3</text>
<text x="84.62" y="18.33" style="text-anchor: middle; dominant-baseline: middle; font-size: 0.676px" >B14</text>
<text x="28.28" y="18.94" style="text-anchor: middle; dominant-baseline: middle; font-size: 0.676px" >D19</text>
<text x="75.73" y="19.42" style="text-anchor: middle; dominant-baseline: middle; font-size: 0.676px" >C4</text>
<text x="33.57" y="20.33" style="text-anchor: middle; dominant-baseline: middle; font-size: 0.676px" >X2</text>
<text x="39.76" y="20.33" style="text-anchor: middle; dominant-baseline: middle; font-size: 0.676px" >X4</text>
<text x="92.01" y="18.88" style="text-anchor: middle; dominant-baseline: middle; font-size: 0.676px" >B22</text>
<text x="56.68" y="41.92" style="text-anchor: middle; dominant-baseline: middle; font-size: 0.676px" >A21</text>
<text x="74.74" y="19.39" style="text-anchor: middle; dominant-baseline: middle; font-size: 0.676px" >C5</text>
<text x="58.76" y="38.54" style="text-anchor: middle; dominant-baseline: middle; font-size: 0.676px" >A20</text>
<text x="81.98" y="10.68" style="text-anchor: middle; dominant-baseline: middle; font-size: 0.676px" >B20</text>
<text x="28.41" y="41.34" style="text-anchor: middle; dominant-baseline: middle; font-size: 0.676px" >D1</text>
<text x="41.03" y="13.02" style="text-anchor: middle; dominant-baseline: middle; font-size: 0.676px" >CL13</text>
<text x="81.98" y="31.03" style="text-anchor: middle; dominant-baseline: middle; font-size: 0.676px" >B2</text>
<text x="56.40" y="20.46" style="text-anchor: middle; dominant-baseline: middle; font-size: 0.676px" >E7</text>
<text x="44.39" y="35.60" style="text-anchor: middle; dominant-baseline: middle; font-size: 0.676px" >A11</text>
<text x="82.00" y="32.37" style="text-anchor: middle; dominant-baseline: middle; font-size: 0.676px" >B1</text>
<text x="58.79" y="41.82" style="text-anchor: middle; dominant-baseline: middle; font-size: 0.676px" >A22</text>
<text x="28.31" y="26.40" style="text-anchor: middle; dominant-baseline: middle; font-size: 0.676px" >D13</text>
<text x="58.61" y="18.33" style="text-anchor: middle; dominant-baseline: middle; font-size: 0.676px" >C12</text>
<text x="40.93" y="14.64" style="text-anchor: middle; dominant-baseline: middle; font-size: 0.676px" >CL14</text>
<text x="45.73" y="35.62" style="text-anchor: middle; dominant-baseline: middle; font-size: 0.676px" >A12</text>
<text x="52.26" y="35.67" style="text-anchor: middle; dominant-baseline: middle; font-size: 0.676px" >A15</text>
<text x="82.16" y="24.73" style="text-anchor: middle; dominant-baseline: middle; font-size: 0.676px" >B7</text>
<text x="28.41" y="27.39" style="text-anchor: middle; dominant-baseline: middle; font-size: 0.676px" >D12</text>
<text x="75.65" y="35.83" style="text-anchor: middle; dominant-baseline: middle; font-size: 0.676px" >A36</text>
<text x="49.44" y="24.85" style="text-anchor: middle; dominant-baseline: middle; font-size: 0.676px" >E1</text>
<text x="62.40" y="14.64" style="text-anchor: middle; dominant-baseline: middle; font-size: 0.676px" >C17</text>
<text x="39.00" y="35.50" style="text-anchor: middle; dominant-baseline: middle; font-size: 0.676px" >A7</text>
<text x="43.27" y="35.65" style="text-anchor: middle; dominant-baseline: middle; font-size: 0.676px" >A10</text>
<text x="56.30" y="22.75" style="text-anchor: middle; dominant-baseline: middle; font-size: 0.676px" >E5</text>
<text x="68.26" y="35.70" style="text-anchor: middle; dominant-baseline: middle; font-size: 0.676px" >A28</text>
<text x="72.28" y="19.44" style="text-anchor: middle; dominant-baseline: middle; font-size: 0.676px" >C7</text>
<text x="73.88" y="9.49" style="text-anchor: middle; dominant-baseline: middle; font-size: 0.676px" >C25</text>
<text x="78.17" y="19.39" style="text-anchor: middle; dominant-baseline: middle; font-size: 0.676px" >C2</text>
<text x="47.84" y="22.95" style="text-anchor: middle; dominant-baseline: middle; font-size: 0.676px" >E4</text>
<text x="58.66" y="10.68" style="text-anchor: middle; dominant-baseline: middle; font-size: 0.676px" >C20</text>
<text x="83.25" y="38.49" style="text-anchor: middle; dominant-baseline: middle; font-size: 0.676px" >A42</text>
<text x="69.86" y="19.39" style="text-anchor: middle; dominant-baseline: middle; font-size: 0.676px" >C9</text>
<polygon points="41.47,56.08 41.47,58.65 33.54,58.65 33.54,57.05 33.54,56.08 30.77,56.08 30.77,57.20 30.06,57.45 32.07,62.97 32.17,62.94 31.97,62.36 32.50,62.18 32.52,60.83 36.97,60.83 36.97,66.65 38.98,66.65 38.98,66.50 43.78,66.50 43.78,66.62 43.62,66.62 43.62,68.28 52.77,68.28 52.77,75.79 66.05,75.77 66.03,68.28 71.23,68.28 71.29,61.80 71.23,60.45 71.18,60.48 61.00,60.45 61.00,58.80 62.14,58.80 62.17,58.70 62.12,56.08 41.47,56.08" style="fill: white" />
<polygon points="39.05,64.77 43.62,64.77 43.62,64.47 39.05,64.47 39.05,64.77" style="fill: #d5d5d5" />
<polygon points="61.53,62.84 61.53,62.18 62.19,62.18 62.19,63.02 62.57,63.02 62.57,63.68 61.91,63.68 61.91,62.84 61.53,62.84" style="fill: #d5d5d5" />
<polygon points="61.91,64.82 62.57,64.82 62.57,65.48 62.19,65.48 62.19,66.32 61.53,66.32 61.53,65.66 61.91,65.66 61.91,64.82" style="fill: #d5d5d5" />
<polygon points="63.03,60.86 61.91,60.86 61.91,60.50 68.01,60.50 69.13,60.50 69.13,60.86 63.03,60.86" style="fill: #d5d5d5" />
<polygon points="66.33,66.12 67.40,66.12 67.40,62.41 66.33,62.41 66.33,66.12" style="fill: #d5d5d5" />
<polygon points="68.64,66.12 69.71,66.12 69.71,62.41 68.64,62.41 68.64,66.12" style="fill: #d5d5d5" />
<polygon points="58.28,62.28 60.57,62.28 60.57,63.65 58.28,63.65 58.28,62.28" style="fill: #d5d5d5" />
<polygon points="58.28,64.85 60.57,64.82 60.57,66.22 58.28,66.22 58.28,64.85" style="fill: #d5d5d5" />
<polygon points="66.23,68.17 69.89,68.17 69.89,67.56 66.23,67.56 66.23,68.17" style="fill: #d5d5d5" />
<polygon points="58.31,68.20 64.10,68.20 64.10,67.59 58.31,67.59 58.31,68.20" style="fill: #d5d5d5" />
<polygon points="37.66,59.08 36.54,59.08 36.54,58.72 37.76,58.72 38.87,58.72 38.87,59.08 37.66,59.08" style="fill: #d5d5d5" />
<polygon points="45.25,68.25 52.57,68.25 52.57,67.64 45.25,67.64 45.25,68.25" style="fill: #d5d5d5" />
<polygon points="42.71,58.14 43.60,58.14 43.60,56.95 42.71,56.95 42.71,58.14" style="fill: #d5d5d5" />
<polygon points="46.19,66.19 45.68,65.68 45.45,65.38 45.50,64.62 45.94,64.19 46.67,64.69 47.18,65.20 46.19,66.19" style="fill: #d5d5d5" />
<polygon points="50.99,64.82 49.87,64.82 49.87,64.47 51.24,64.47 52.36,64.47 52.36,64.82 50.99,64.82" style="fill: #d5d5d5" />
<polygon points="51.37,57.99 52.57,57.99 52.57,57.10 51.37,57.10 51.37,57.99" style="fill: #d5d5d5" />
<polygon points="47.51,58.90 47.51,58.52 48.27,58.52 48.27,58.90 47.51,58.90" style="fill: #d5d5d5" />
<polygon points="50.08,59.49 50.08,58.72 50.43,58.72 50.43,59.49 50.08,59.49" style="fill: #d5d5d5" />
<text x="34.74" y="108.80" style="text-anchor: middle; dominant-baseline: middle; font-size: 0.676px" >entrance</text>
<text x="62.32" y="123.96" style="text-anchor: middle; dominant-baseline: middle; font-size: 0.676px" >restrooms</text>
<text x="61.38" y="66.12" style="text-anchor: middle; dominant-baseline: middle; font-size: 0.676px" >K7</text>
<text x="61.66" y="61.21" style="text-anchor: middle; dominant-baseline: middle; font-size: 0.676px" >K13</text>
<text x="66.28" y="62.79" style="text-anchor: middle; dominant-baseline: middle; font-size: 0.676px" >K8</text>
<text x="68.54" y="62.89" style="text-anchor: middle; dominant-baseline: middle; font-size: 0.676px" >K10</text>
<text x="58.00" y="65.66" style="text-anchor: middle; dominant-baseline: middle; font-size: 0.676px" >K3</text>
<text x="61.43" y="62.74" style="text-anchor: middle; dominant-baseline: middle; font-size: 0.676px" >K4</text>
<text x="61.81" y="63.50" style="text-anchor: middle; dominant-baseline: middle; font-size: 0.676px" >K5</text>
<text x="61.79" y="65.35" style="text-anchor: middle; dominant-baseline: middle; font-size: 0.676px" >K6</text>
<text x="69.48" y="67.51" style="text-anchor: middle; dominant-baseline: middle; font-size: 0.676px" >K12</text>
<text x="52.39" y="67.26" style="text-anchor: middle; dominant-baseline: middle; font-size: 0.676px" >M1</text>
<text x="67.68" y="62.79" style="text-anchor: middle; dominant-baseline: middle; font-size: 0.676px" >K9</text>
<text x="70.07" y="62.86" style="text-anchor: middle; dominant-baseline: middle; font-size: 0.676px" >K11</text>
<text x="57.92" y="63.12" style="text-anchor: middle; dominant-baseline: middle; font-size: 0.676px" >K2</text>
</svg>
