<?xml version="1.0"?>
<!-- Generated by SVGo (float) -->
<svg width="84.45" height="39.19"
     xmlns="http://www.w3.org/2000/svg"
     xmlns:xlink="http://www.w3.org/1999/xlink">
<polygon points="16.41,0.00 16.41,3.89 17.83,3.89 17.83,5.31 9.93,5.41 5.18,5.41 5.18,6.93 5.21,7.09 0.00,7.06 0.66,8.92 1.30,8.69 1.68,9.75 1.04,9.98 2.44,14.00 10.87,14.00 10.87,34.57 29.79,34.57 29.79,33.91 35.15,33.91 35.15,36.27 38.10,36.27 38.10,38.86 64.29,39.19 64.29,36.47 77.24,36.47 77.24,28.02 75.21,28.02 75.21,25.76 80.85,25.76 80.85,22.35 83.57,22.35 83.57,21.01 84.45,21.01 84.45,16.05 83.57,16.05 83.57,14.91 84.45,14.91 84.45,9.96 83.59,9.96 83.57,8.81 84.45,8.81 84.45,3.86 83.57,3.86 83.57,2.72 84.45,2.72 84.45,0.00 16.41,0.00" style="fill: white" />
<polygon points="26.72,15.49 27.33,15.49 27.33,13.49 26.72,13.49 26.72,15.49" style="fill: #d5d5d5" />
<polygon points="23.85,15.37 25.12,15.37 25.12,11.66 23.85,11.66 23.85,15.37" style="fill: #d5d5d5" />
<polygon points="28.80,16.38 28.80,16.13 29.51,16.00 29.64,15.42 30.05,15.04 30.05,11.66 31.32,11.66 31.32,15.37 30.20,15.39 29.97,15.65 29.92,16.03 29.62,16.10 29.41,16.41 28.80,16.38" style="fill: #d5d5d5" />
<polygon points="34.29,15.62 34.29,15.11 35.51,15.11 35.51,15.62 34.29,15.62" style="fill: #d5d5d5" />
<polygon points="23.22,10.21 23.52,10.21 23.52,4.01 23.22,4.01 23.22,10.21" style="fill: #d5d5d5" />
<polygon points="26.37,10.21 26.67,10.21 26.67,4.01 26.37,4.01 26.37,10.21" style="fill: #d5d5d5" />
<polygon points="28.80,10.21 29.11,10.21 29.11,3.91 28.80,3.91 28.80,10.21" style="fill: #d5d5d5" />
<polygon points="31.95,10.21 32.26,10.21 32.26,4.01 31.95,4.01 31.95,10.21" style="fill: #d5d5d5" />
<polygon points="34.19,11.28 34.80,11.28 34.80,3.96 34.19,3.96 34.19,11.28" style="fill: #d5d5d5" />
<polygon points="75.23,16.00 81.81,16.00 81.81,14.83 75.23,14.83 75.23,16.00" style="fill: #d5d5d5" />
<polygon points="73.56,3.51 82.14,3.51 82.14,2.24 73.56,2.24 73.56,3.51" style="fill: #d5d5d5" />
<polygon points="38.07,27.30 38.07,27.03 38.53,27.03 38.53,27.30 38.07,27.30" style="fill: #d5d5d5" />
<polygon points="22.63,32.21 23.70,32.21 23.70,26.67 22.63,26.67 22.63,32.21" style="fill: #d5d5d5" />
<polygon points="25.48,32.21 26.54,32.21 26.54,26.67 25.48,26.67 25.48,32.21" style="fill: #d5d5d5" />
<polygon points="30.58,32.31 31.65,32.31 31.65,26.77 30.58,26.77 30.58,32.31" style="fill: #d5d5d5" />
<polygon points="33.55,32.31 34.62,32.31 34.62,26.77 33.55,26.77 33.55,32.31" style="fill: #d5d5d5" />
<polygon points="35.99,32.92 37.06,32.92 37.06,26.77 35.99,26.77 35.99,32.92" style="fill: #d5d5d5" />
<polygon points="39.27,36.30 41.40,36.30 41.40,26.87 39.27,26.87 39.27,36.30" style="fill: #d5d5d5" />
<polygon points="43.87,36.35 46.10,36.35 46.10,26.72 43.87,26.72 43.87,36.35" style="fill: #d5d5d5" />
<polygon points="52.25,36.40 54.03,36.40 54.03,26.72 52.25,26.72 52.25,36.40" style="fill: #d5d5d5" />
<polygon points="35.20,36.20 37.64,36.20 37.64,35.59 35.20,35.59 35.20,36.20" style="fill: #d5d5d5" />
<polygon points="27.33,34.57 29.77,34.57 29.77,33.99 27.33,33.99 27.33,34.57" style="fill: #d5d5d5" />
<polygon points="73.53,23.67 78.46,23.67 78.46,22.61 73.53,22.61 73.53,23.67" style="fill: #d5d5d5" />
<polygon points="73.56,21.18 82.14,21.18 82.14,20.12 73.56,20.12 73.56,21.18" style="fill: #d5d5d5" />
<polygon points="73.56,18.67 82.14,18.67 82.14,17.60 73.56,17.60 73.56,18.67" style="fill: #d5d5d5" />
<polygon points="73.53,16.03 73.53,14.81 74.19,14.81 74.19,16.03 73.53,16.03" style="fill: #d5d5d5" />
<polygon points="76.15,13.61 82.14,13.61 82.14,12.55 76.15,12.55 76.15,13.61" style="fill: #d5d5d5" />
<polygon points="76.15,10.95 82.14,10.95 82.14,9.88 76.15,9.88 76.15,10.95" style="fill: #d5d5d5" />
<polygon points="73.56,5.99 82.14,5.99 82.14,4.93 73.56,4.93 73.56,5.99" style="fill: #d5d5d5" />
<polygon points="83.59,14.86 84.18,14.86 84.18,9.98 83.59,9.98 83.59,14.86" style="fill: #d5d5d5" />
<polygon points="83.57,20.95 84.18,20.95 84.18,16.08 83.57,16.08 83.57,20.95" style="fill: #d5d5d5" />
<polygon points="13.00,12.65 20.37,12.65 20.37,11.58 13.00,11.58 13.00,12.65" style="fill: #d5d5d5" />
<polygon points="13.00,10.24 20.37,10.24 20.37,9.17 13.00,9.17 13.00,10.24" style="fill: #d5d5d5" />
<polygon points="13.00,7.80 20.37,7.80 20.37,6.73 13.00,6.73 13.00,7.80" style="fill: #d5d5d5" />
<polygon points="45.87,15.54 45.57,15.11 45.64,15.06 46.63,14.33 47.83,13.44 48.16,13.87 45.87,15.54" style="fill: #d5d5d5" />
<polygon points="45.82,13.36 45.67,13.13 45.54,12.90 45.64,12.85 46.61,12.14 47.60,11.40 47.83,11.23 48.13,11.66 45.85,13.34 45.82,13.36" style="fill: #d5d5d5" />
<polygon points="45.87,11.07 45.57,10.67 45.64,10.62 47.85,8.99 48.16,9.42 45.87,11.07" style="fill: #d5d5d5" />
<polygon points="47.75,3.58 49.02,3.58 49.02,2.24 47.75,2.24 47.75,3.58" style="fill: #d5d5d5" />
<polygon points="45.87,3.58 47.14,3.58 47.14,2.24 45.87,2.24 45.87,3.58" style="fill: #d5d5d5" />
<polygon points="48.34,36.22 50.04,36.22 50.04,32.87 48.34,32.87 48.34,36.22" style="fill: #d5d5d5" />
<polygon points="19.05,17.65 20.37,17.65 20.37,16.59 19.05,16.59 19.05,17.65" style="fill: #d5d5d5" />
<polygon points="13.06,17.65 18.57,17.65 18.57,16.59 13.06,16.59 13.06,17.65" style="fill: #d5d5d5" />
<polygon points="13.00,20.07 20.40,20.07 20.40,19.00 13.00,19.00 13.00,20.07" style="fill: #d5d5d5" />
<polygon points="10.95,18.19 11.56,18.21 11.56,23.57 11.91,24.03 11.99,33.68 12.37,33.88 24.16,33.88 24.18,34.47 12.01,34.47 11.79,33.86 11.02,33.78 10.95,18.19" style="fill: #d5d5d5" />
<polygon points="13.00,22.38 20.37,22.38 20.37,21.41 13.00,21.41 13.00,22.38" style="fill: #d5d5d5" />
<polygon points="13.31,24.82 20.37,24.82 20.37,23.75 13.31,23.75 13.31,24.82" style="fill: #d5d5d5" />
<polygon points="64.08,27.41 64.08,26.77 65.35,26.77 65.35,27.03 65.96,27.03 65.96,27.30 65.35,27.30 65.35,33.50 65.35,33.99 64.08,33.99 64.08,33.50 64.08,27.41" style="fill: #d5d5d5" />
<polygon points="61.11,36.60 62.38,36.60 62.38,26.80 61.11,26.80 61.11,36.60" style="fill: #d5d5d5" />
<polygon points="58.32,36.60 59.59,36.60 59.59,26.80 58.32,26.80 58.32,36.60" style="fill: #d5d5d5" />
<polygon points="67.36,34.01 68.63,34.01 68.63,26.80 67.36,26.80 67.36,34.01" style="fill: #d5d5d5" />
<polygon points="56.11,39.17 58.45,39.17 58.45,38.15 56.11,38.15 56.11,39.17" style="fill: #d5d5d5" />
<polygon points="38.18,38.10 38.18,37.82 39.09,37.82 39.09,37.97 47.73,37.97 47.73,38.13 55.78,38.13 55.78,38.40 55.09,38.40 55.09,39.17 46.99,39.17 46.20,39.17 45.42,39.17 43.08,39.17 42.29,39.17 40.74,39.17 39.95,39.17 39.17,39.17 39.17,38.10 38.18,38.10" style="fill: #d5d5d5" />
<polygon points="50.24,3.51 58.70,3.51 58.70,2.24 50.24,2.24 50.24,3.51" style="fill: #d5d5d5" />
<polygon points="70.03,10.97 71.09,10.97 71.09,2.39 70.03,2.39 70.03,10.97" style="fill: #d5d5d5" />
<polygon points="67.59,10.97 68.66,10.97 68.66,2.39 67.59,2.39 67.59,10.97" style="fill: #d5d5d5" />
<polygon points="65.18,10.97 66.24,10.97 66.24,3.63 65.18,3.63 65.18,10.97" style="fill: #d5d5d5" />
<polygon points="50.24,11.00 58.83,11.00 58.83,9.93 50.24,9.93 50.24,11.00" style="fill: #d5d5d5" />
<polygon points="53.98,8.38 58.75,8.38 58.75,7.32 53.98,7.32 53.98,8.38" style="fill: #d5d5d5" />
<polygon points="62.74,10.97 63.80,10.97 63.80,2.39 62.74,2.39 62.74,10.97" style="fill: #d5d5d5" />
<polygon points="60.10,10.95 61.37,10.95 61.37,2.36 60.10,2.36 60.10,10.95" style="fill: #d5d5d5" />
<polygon points="40.56,16.15 43.89,16.15 43.89,15.39 40.56,15.39 40.56,16.15" style="fill: #d5d5d5" />
<polygon points="39.22,14.17 39.22,13.69 41.66,13.69 43.48,13.69 43.48,14.17 39.22,14.17 39.22,15.75 38.73,15.75 38.73,15.82 38.53,15.82 38.53,16.10 38.07,16.10 38.07,15.67 37.67,15.67 37.67,15.21 38.73,15.21 38.73,14.22 39.22,14.22 39.22,14.17" style="fill: #d5d5d5" />
<polygon points="53.98,5.94 58.75,5.94 58.75,4.88 53.98,4.88 53.98,5.94" style="fill: #d5d5d5" />
<polygon points="28.78,15.09 28.78,14.83 28.78,14.81 28.80,14.81 29.39,14.81 29.41,14.81 29.41,14.83 29.41,15.09 28.78,15.09" style="fill: #d5d5d5" />
<polygon points="47.78,31.29 50.52,31.29 50.52,26.72 47.78,26.72 47.78,31.29" style="fill: #d5d5d5" />
<polygon points="60.68,39.12 64.34,39.12 64.34,38.63 60.68,38.63 60.68,39.12" style="fill: #d5d5d5" />
<polygon points="76.23,28.07 77.09,28.07 77.09,35.38 76.28,35.38 76.28,36.30 64.39,36.30 64.39,35.41 76.23,35.41 76.23,28.07" style="fill: #d5d5d5" />
<polygon points="74.55,25.68 74.55,25.07 75.44,24.94 79.91,24.92 80.19,24.59 80.21,22.38 80.80,22.38 80.80,24.82 80.14,24.94 79.98,25.55 75.46,25.55 74.55,25.68" style="fill: #d5d5d5" />
<polygon points="13.00,15.06 20.40,15.06 20.40,14.05 13.00,14.05 13.00,15.06" style="fill: #d5d5d5" />
<polygon points="45.47,0.69 45.49,0.08 83.54,0.08 83.64,0.63 84.15,0.84 84.18,2.64 83.57,2.67 83.57,1.04 83.11,0.69 45.47,0.69" style="fill: #d5d5d5" />
<polygon points="83.62,8.76 84.20,8.76 84.20,3.89 83.62,3.89 83.62,8.76" style="fill: #d5d5d5" />
<polygon points="27.94,32.21 29.21,32.21 29.21,26.67 27.94,26.67 27.94,32.21" style="fill: #d5d5d5" />
<polygon points="55.55,31.57 56.82,31.57 56.82,26.67 55.55,26.67 55.55,31.57" style="fill: #d5d5d5" />
<polygon points="55.55,36.68 56.82,36.68 56.82,32.38 55.55,32.38 55.55,36.68" style="fill: #d5d5d5" />
<polygon points="70.28,34.01 71.55,34.01 71.55,26.80 70.28,26.80 70.28,34.01" style="fill: #d5d5d5" />
<polygon points="65.25,2.87 65.25,2.26 66.17,2.26 66.17,2.87 65.25,2.87" style="fill: #d5d5d5" />
<polygon points="47.12,27.23 47.12,26.95 47.57,26.95 47.57,27.23 47.12,27.23" style="fill: #d5d5d5" />
<polygon points="13.31,30.07 20.37,30.07 20.37,29.01 13.31,29.01 13.31,30.07" style="fill: #d5d5d5" />
<polygon points="13.31,27.28 20.37,27.28 20.37,26.21 13.31,26.21 13.31,27.28" style="fill: #d5d5d5" />
<polygon points="73.18,34.01 74.45,34.01 74.45,29.54 73.18,29.54 73.18,34.01" style="fill: #d5d5d5" />
<polygon points="43.76,3.30 44.37,3.30 44.37,0.86 43.76,0.86 43.76,3.30" style="fill: #d5d5d5" />
<polygon points="50.27,6.10 50.27,4.72 52.55,4.72 52.55,6.10 50.27,6.10" style="fill: #d5d5d5" />
<polygon points="50.27,8.53 50.27,7.16 52.55,7.16 52.55,8.53 50.27,8.53" style="fill: #d5d5d5" />
<polygon points="73.69,8.51 82.14,8.51 82.14,7.44 73.69,7.44 73.69,8.51" style="fill: #d5d5d5" />
<polygon points="73.56,13.59 74.63,13.59 74.63,10.19 73.56,10.19 73.56,13.59" style="fill: #d5d5d5" />
<polygon points="13.31,32.51 19.74,32.51 19.74,31.45 13.31,31.45 13.31,32.51" style="fill: #d5d5d5" />
<polygon points="52.25,20.40 55.93,20.40 55.93,19.51 52.25,19.51 52.25,20.40" style="fill: #d5d5d5" />
<polygon points="54.41,18.14 55.30,18.14 55.30,15.70 54.41,15.70 54.41,18.14" style="fill: #d5d5d5" />
<polygon points="43.64,23.55 43.64,22.35 44.53,22.35 44.60,23.39 44.91,23.60 45.77,23.60 45.77,24.49 44.58,24.49 44.45,23.67 43.64,23.55" style="fill: #d5d5d5" />
<polygon points="43.64,20.19 43.64,19.00 44.45,18.87 44.58,18.06 45.77,18.06 45.77,18.95 44.73,19.02 44.55,19.33 44.53,20.19 43.64,20.19" style="fill: #d5d5d5" />
<polygon points="29.24,23.75 30.12,23.75 30.12,18.82 29.24,18.82 29.24,23.75" style="fill: #d5d5d5" />
<polygon points="61.29,18.47 66.24,18.47 66.24,17.58 61.29,17.58 61.29,18.47" style="fill: #d5d5d5" />
<polygon points="60.55,24.56 61.93,24.56 61.93,22.96 60.55,22.96 60.55,24.56" style="fill: #d5d5d5" />
<polygon points="24.00,19.35 23.60,18.92 23.29,18.54 23.72,18.11 24.46,18.03 24.89,18.47 24.49,18.87 24.05,19.30 24.00,19.35" style="fill: #d5d5d5" />
<polyline points="19.96,21.39 19.99,21.36 19.99,21.29 19.99,21.23 19.99,21.16 19.99,21.10 19.99,21.03 19.99,20.97 19.99,20.90 19.99,20.84 19.99,20.77 19.99,20.71 19.99,20.64 19.99,20.58 19.99,20.51 19.99,20.45 19.99,20.38 19.99,20.31 19.99,20.25 19.99,20.18 19.99,20.12 20.13,20.12 20.27,20.12 20.41,20.12 20.41,20.05 20.41,19.99 20.41,19.92 20.41,19.86 20.41,19.79 20.41,19.73 20.41,19.66 20.41,19.60 20.41,19.53 20.41,19.47 20.41,19.40 20.41,19.33 20.41,19.27 20.41,19.20 20.41,19.14 20.41,19.07 20.41,19.01 20.41,18.94 20.41,18.88 20.41,18.81 20.41,18.75 20.41,18.68 20.41,18.62 20.41,18.55 20.41,18.49 20.41,18.42 20.41,18.36 20.41,18.29 20.41,18.22 20.41,18.16 20.41,18.09 20.41,18.03 20.41,17.96 20.41,17.90 20.41,17.83 20.41,17.77 20.41,17.70 20.41,17.64 20.41,17.57 20.41,17.51 20.41,17.44 20.41,17.38 20.41,17.31 20.41,17.24 20.41,17.18 20.41,17.11 20.41,17.05 20.41,16.98 20.41,16.92 20.41,16.85 20.41,16.79 20.41,16.72 20.41,16.66 20.41,16.59 20.41,16.53 20.41,16.46 20.41,16.40 20.41,16.33 20.41,16.26 20.41,16.20 20.41,16.13 20.41,16.07 20.41,16.00 20.41,15.94 20.41,15.87 20.41,15.81 20.41,15.74 20.41,15.68 20.41,15.61 20.41,15.55 20.41,15.48 20.41,15.42 20.41,15.35 20.41,15.28 20.41,15.22 20.41,15.15 20.41,15.09 20.41,15.02 20.41,14.96 20.41,14.89 20.41,14.83 20.41,14.76 20.41,14.70 20.41,14.63 20.41,14.57 20.41,14.50 20.41,14.44 20.41,14.37 20.41,14.31 20.41,14.24 20.41,14.17 20.41,14.11 20.41,14.04 20.41,13.98 20.41,13.91 20.41,13.85 20.41,13.78 20.41,13.72 20.41,13.65 20.41,13.59 20.41,13.52 20.41,13.46 20.41,13.39 20.41,13.33 20.41,13.26 20.41,13.19 20.41,13.13 20.41,13.06 20.41,13.00 20.41,12.93 20.41,12.87 20.41,12.80 20.41,12.74 20.41,12.67 20.41,12.61 20.41,12.54 20.41,12.48 20.41,12.41 20.41,12.35 20.41,12.28 20.41,12.21 20.41,12.15 20.41,12.08 20.41,12.02 20.41,11.95 20.41,11.89 20.41,11.82 20.41,11.76 20.41,11.69 20.41,11.63 20.41,11.56 20.41,11.50 20.41,11.43 20.41,11.37 20.41,11.30 20.55,11.30 20.69,11.30 20.83,11.30 20.97,11.30 21.11,11.30 21.25,11.30 21.40,11.30 21.54,11.30 21.68,11.30 21.82,11.30 21.96,11.30 22.10,11.30 22.24,11.30 22.38,11.30 22.52,11.30 22.66,11.30 22.80,11.30 22.94,11.30 23.08,11.30 23.23,11.30 23.37,11.30 23.51,11.30 23.65,11.30 23.79,11.30 23.93,11.30 24.07,11.30 24.21,11.30 24.35,11.30 24.49,11.30 24.63,11.30 24.77,11.30 24.91,11.30 25.05,11.30 25.20,11.30 25.34,11.30 25.48,11.30 25.62,11.30 25.76,11.30 25.90,11.30 26.04,11.30 26.18,11.30 26.32,11.30 26.46,11.30 26.60,11.30 26.74,11.30 26.88,11.30 27.03,11.30 27.17,11.30 27.31,11.30 27.45,11.30 27.59,11.30 27.73,11.30 27.87,11.30 28.01,11.30 28.15,11.30 28.29,11.30 28.43,11.30 28.57,11.30 28.71,11.30 28.86,11.30 29.00,11.30 29.14,11.30 29.28,11.30 29.42,11.30 29.56,11.30 29.70,11.30 29.84,11.30 29.98,11.30 30.12,11.30 30.26,11.30 30.40,11.30 30.54,11.30 30.69,11.30 30.83,11.30 30.97,11.30 31.11,11.30 31.25,11.30 31.39,11.30 31.53,11.30 31.67,11.30 31.81,11.30 31.95,11.30 32.09,11.30 32.23,11.30 32.37,11.30 32.52,11.30 32.66,11.30 32.80,11.30 32.94,11.30 33.08,11.30 33.22,11.30 33.36,11.30 33.50,11.30 33.64,11.30 33.78,11.30 33.92,11.30 34.06,11.30 34.20,11.30 34.35,11.30 34.49,11.30 34.63,11.30 34.77,11.30 34.91,11.30 34.91,11.24 34.91,11.17 34.91,11.10 35.05,11.10 35.19,11.10 35.33,11.10 35.47,11.10 35.61,11.10 35.75,11.10 35.89,11.10 36.03,11.10 36.17,11.10 36.32,11.10 36.46,11.10 36.60,11.10 36.74,11.10 36.88,11.10 37.02,11.10 37.16,11.10 37.30,11.10 37.44,11.10 37.58,11.10 37.72,11.10 37.86,11.10 38.00,11.10 38.15,11.10 38.29,11.10 38.43,11.10 38.57,11.10 38.71,11.10 38.85,11.10 38.99,11.10 39.13,11.10 39.27,11.10 39.41,11.10 39.55,11.10 39.69,11.10 39.83,11.10 39.98,11.10 40.12,11.10 40.26,11.10 40.40,11.10 40.54,11.10 40.68,11.10 40.82,11.10 40.96,11.10 41.10,11.10 41.24,11.10 41.38,11.10 41.52,11.10 41.66,11.10 41.81,11.10 41.95,11.10 42.09,11.10 42.23,11.10 42.37,11.10 42.51,11.10 42.65,11.10 42.79,11.10 42.93,11.10 43.07,11.10 43.21,11.10 43.35,11.10 43.49,11.10 43.64,11.10 43.78,11.10 43.92,11.10 44.06,11.10 44.20,11.10 44.34,11.10 44.48,11.10 44.62,11.10 44.76,11.10 44.90,11.10 45.04,11.10 45.18,11.10 45.32,11.10 45.46,11.10 45.61,11.10 45.75,11.10 45.89,11.10 46.03,11.10 46.03,11.04 46.17,11.04 46.31,11.04 46.45,11.04 46.59,11.04 46.73,11.04 46.87,11.04 47.01,11.04 47.15,11.04 47.29,11.04 47.44,11.04 47.58,11.04 47.72,11.04 47.86,11.04 48.00,11.04 48.14,11.04 48.28,11.04 48.42,11.04 48.56,11.04 48.70,11.04 48.84,11.04 48.98,11.04 49.12,11.04 49.27,11.04 49.41,11.04 49.55,11.04 49.69,11.04 49.83,11.04 49.97,11.04 50.11,11.04 50.25,11.04 50.39,11.04 50.53,11.04 50.67,11.04 50.81,11.04 50.95,11.04 51.10,11.04 51.24,11.04 51.38,11.04 51.52,11.04 51.66,11.04 51.80,11.04 51.94,11.04 52.08,11.04 52.22,11.04 52.36,11.04 52.50,11.04 52.64,11.04 52.78,11.04 52.93,11.04 53.07,11.04 53.21,11.04 53.35,11.04 53.49,11.04 53.63,11.04 53.77,11.04 53.91,11.04 54.05,11.04 54.19,11.04 54.33,11.04 54.47,11.04 54.61,11.04 54.75,11.04 54.90,11.04 55.04,11.04 55.18,11.04 55.32,11.04 55.46,11.04 55.60,11.04 55.74,11.04 55.88,11.04 56.02,11.04 56.16,11.04 56.30,11.04 56.44,11.04 56.58,11.04 56.73,11.04 56.87,11.04 57.01,11.04 57.15,11.04 57.29,11.04 57.43,11.04 57.57,11.04 57.71,11.04 57.85,11.04 57.99,11.04 58.13,11.04 58.27,11.04 58.41,11.04 58.56,11.04 58.70,11.04 58.84,11.04 58.84,10.97 58.98,10.97 59.12,10.97 59.26,10.97 59.40,10.97 59.54,10.97 59.68,10.97 59.82,10.97 59.96,10.97 60.10,10.97 60.24,10.97 60.39,10.97 60.53,10.97 60.67,10.97 60.81,10.97 60.95,10.97 61.09,10.97 61.23,10.97 61.37,10.97 61.51,10.97 61.65,10.97 61.79,10.97 61.93,10.97 62.07,10.97 62.22,10.97 62.36,10.97 62.50,10.97 62.64,10.97 62.78,10.97 62.92,10.97 63.06,10.97 63.20,10.97 63.34,10.97 63.48,10.97 63.62,10.97 63.76,10.97 63.90,10.97 64.05,10.97 64.19,10.97 64.33,10.97 64.47,10.97 64.61,10.97 64.75,10.97 64.89,10.97 65.03,10.97 65.17,10.97 65.31,10.97 65.45,10.97 65.59,10.97 65.73,10.97 65.87,10.97 66.02,10.97 66.16,10.97 66.30,10.97 66.44,10.97 66.58,10.97 66.72,10.97 66.86,10.97 67.00,10.97 67.14,10.97 67.28,10.97 67.42,10.97 67.56,10.97 67.70,10.97 67.85,10.97 67.99,10.97 68.13,10.97 68.27,10.97 68.41,10.97 68.55,10.97 68.69,10.97 68.83,10.97 68.97,10.97 69.11,10.97 69.25,10.97 69.39,10.97 69.53,10.97 69.68,10.97 69.82,10.97 69.96,10.97 70.10,10.97 70.24,10.97 70.38,10.97 70.52,10.97 70.66,10.97 70.80,10.97 70.94,10.97 71.08,10.97 71.22,10.97 71.22,10.91 71.22,10.84 71.22,10.78 71.22,10.71 71.22,10.65 71.22,10.58 71.22,10.52 71.22,10.45 71.22,10.39 71.22,10.32 71.22,10.26 71.22,10.19 71.22,10.12 71.22,10.06 71.22,9.99 71.22,9.93 71.22,9.86 71.22,9.80 71.22,9.73 71.22,9.67 71.22,9.60 71.22,9.54 71.22,9.47 71.22,9.41 71.22,9.34 71.22,9.28 71.22,9.21 71.22,9.14 71.22,9.08 71.22,9.01 71.22,8.95 71.22,8.88 71.22,8.82 71.22,8.75 71.22,8.69 71.22,8.62 71.22,8.56 71.22,8.49 71.22,8.43 71.22,8.36 71.22,8.30 71.22,8.23 71.22,8.17 71.22,8.10 71.22,8.03 71.22,7.97 71.22,7.90 71.22,7.84 71.22,7.77 71.22,7.71 71.22,7.64 71.22,7.58 71.22,7.51 71.22,7.45 71.22,7.38 71.22,7.32 71.22,7.25 71.22,7.19 71.22,7.12 71.22,7.05 71.22,6.99 71.22,6.92 71.22,6.86 71.22,6.79 71.22,6.73 71.22,6.66 71.22,6.60 71.22,6.53 71.22,6.47 71.22,6.40 71.22,6.34 71.22,6.27 71.22,6.21 71.22,6.14 71.22,6.07 71.22,6.01 71.22,5.94 71.22,5.88 71.22,5.81 71.22,5.75 71.22,5.68 71.22,5.62 71.22,5.55 71.22,5.49 71.22,5.42 71.22,5.36 71.22,5.29 71.22,5.23 71.22,5.16 71.22,5.09 71.22,5.03 71.22,4.96 71.22,4.90 71.22,4.83 71.22,4.77 71.22,4.70 71.22,4.64 71.22,4.57 71.22,4.51 71.22,4.44 71.22,4.38 71.22,4.31 71.22,4.25 71.22,4.18 71.22,4.12 71.22,4.05 71.22,3.98 71.22,3.92 71.22,3.85 71.22,3.79 71.36,3.79 71.51,3.79 71.65,3.79 71.79,3.79 71.93,3.79 72.07,3.79 72.21,3.79 72.35,3.79 72.49,3.79 72.63,3.79 72.77,3.79 72.91,3.79 73.05,3.79 73.19,3.79 73.34,3.79 73.48,3.79 73.62,3.79 73.56,3.76" style="stroke-width: 0.422px; stroke: #2ed941; fill: none" />
</svg>
